<?xml version="1.0" encoding="utf-8"?>
<!-- Generator: Adobe Illustrator 26.0.3, SVG Export Plug-In . SVG Version: 6.00 Build 0)  -->
<svg version="1.1" id="Layer_1" xmlns="http://www.w3.org/2000/svg" xmlns:xlink="http://www.w3.org/1999/xlink" x="0px" y="0px"
	 viewBox="0 0 168 46" style="enable-background:new 0 0 168 46;" xml:space="preserve">
<style type="text/css">
	.st0{fill:#D83634;}
	.st1{fill:#FFFFFF;}
	.st2{fill:#7F201E;}
	.st3{fill:#E1D7BF;}
	.st4{fill:#033740;}
	.st5{fill:#013740;}
	.st6{fill:#03292E;}
	.st7{fill:#08373F;}
	.st8{fill:#F1C395;}
	.st9{fill:#F2BC7E;}
	.st10{fill:#F6EFD6;}
	.st11{fill:#E5E8D8;}
	.st12{fill:#DED5BF;}
	.st13{fill:#E0D6BF;}
	.st14{fill:#E1D6BF;}
	.st15{fill:#FAEED7;}
	.st16{opacity:0.15;fill:#F2BC7E;enable-background:new    ;}
	.st17{fill:#ED2F2F;}
	.st18{fill:#DD281F;}
	.st19{fill:#EDEDED;}
	.st20{fill:#DDDDDD;}
</style>
<g id="Layer_1_1_">
	<g>
		<path class="st0" d="M162.5,20.1h-17.7c-0.6,0-1.1-0.5-1.1-1.1V4.2c0-0.6,0.5-1.1,1.1-1.1h17.7c0.6,0,1.1,0.5,1.1,1.1V19
			C163.7,19.6,163.2,20.1,162.5,20.1"/>
		<path class="st1" d="M54.1,38.6V7.5h7c2.6,0,4.5,0.7,5.7,2.1s1.8,3.7,1.8,6.8c0,2.9-0.6,5.2-1.7,6.9c-1.1,1.7-2.7,2.5-4.7,2.5
			h-3.3v12.7L54.1,38.6L54.1,38.6z M58.9,21.5h1.9c1.1,0,1.9-0.3,2.3-1c0.4-0.7,0.6-2,0.6-3.9c0-1.8-0.2-3-0.7-3.6
			c-0.4-0.6-1.3-1-2.5-1h-1.7v9.5H58.9z"/>
		<path class="st1" d="M71.6,30.6v-16c0-2.4,0.7-4.4,2-5.7c1.3-1.4,3.2-2.1,5.5-2.1c2.2,0,4,0.7,5.3,2.1s2,3.4,2,5.8v3h-4.9v-3.4
			c0-1.1-0.2-1.9-0.6-2.4s-1-0.8-1.8-0.8s-1.4,0.3-1.8,0.8s-0.6,1.3-0.6,2.4v17.3c0,1.1,0.2,1.9,0.6,2.4s1,0.8,1.8,0.8
			s1.4-0.3,1.8-0.8s0.6-1.4,0.6-2.4v-4.2h4.9v3.2c0,2.7-0.6,4.8-1.9,6.3s-3.1,2.2-5.5,2.2s-4.2-0.7-5.5-2.2
			C72.3,35.5,71.6,33.4,71.6,30.6"/>
		<polygon class="st1" points="90.8,7.5 95.5,7.5 95.5,20.1 100.3,20.1 100.3,7.5 105.1,7.5 105.1,38.6 100.3,38.6 100.3,24.6 
			95.5,24.6 95.5,38.6 90.8,38.6 		"/>
		<polygon class="st1" points="110.3,38.6 110.3,7.5 122.8,7.5 122.8,12 115.1,12 115.1,20.1 120.6,20.1 120.6,24.6 115.1,24.6 
			115.1,33.9 122.8,33.9 122.8,38.6 		"/>
		<polygon class="st1" points="124,12 124,7.5 138.8,7.5 138.8,12 133.8,12 133.8,38.6 129,38.6 129,12 		"/>
		<path class="st2" d="M148.3,12.6v5.9h-2.2V4.4h3.2c1.2,0,2,0.3,2.6,1c0.5,0.6,0.8,1.7,0.8,3.1c0,0.9-0.1,1.6-0.3,2.1
			s-0.6,1-1.1,1.3l1.6,6.6h-2.3l-1.3-5.9H148.3z M148.3,6.4v4.1h0.9c0.5,0,0.8-0.2,1-0.5s0.3-0.9,0.3-1.7c0-0.7-0.1-1.3-0.3-1.5
			c-0.2-0.3-0.6-0.4-1.1-0.4H148.3z"/>
		<path class="st2" d="M154.5,4.4h2.2v10.9c0,0.4,0.1,0.7,0.3,1c0.2,0.2,0.5,0.4,0.8,0.4s0.6-0.1,0.8-0.4c0.2-0.2,0.3-0.6,0.3-1V4.4
			h2.2V15c0,1.3-0.3,2.2-0.9,2.9c-0.6,0.7-1.4,1-2.5,1s-1.9-0.3-2.5-1s-0.9-1.6-0.9-2.9V4.4H154.5z"/>
	</g>
</g>
<g id="Layer_2_00000096779357078397377710000017180438306038827950_">
	<g>
		<circle class="st3" cx="27.4" cy="23" r="22.6"/>
		<path class="st4" d="M42.7,33.5c0-0.8-0.2-1.8-0.5-4.4c-0.3-2.7-0.6-3.4-1.6-4.9c-1.1-1.5-3-1.8-3.3-1.9s-2.7-0.4-2.7-0.4
			c-0.2-0.1-1.4-0.9-1.4-0.9l2-2.4c1.5-1.7-1.2-10.1-1.5-11.1l0,0c-1.3-3.1-2.3-3-4.1-4.1l-0.4-0.2c0,0-1-0.5-1.8-0.5
			s-1.8,0.5-1.8,0.5l-0.4,0.2c-1.4,0.8-2.2,1-3,2.1c-0.8,1.2-1,1.9-1.1,1.9l0,0c-0.3,0.8-0.2,0.4-0.6,2.2c-1.5,5.8-2.2,7.4-0.9,8.9
			l2,2.4c0,0-1.2,0.8-1.4,0.9c0,0-2.4,0.3-2.7,0.4c-0.3,0.1-2.2,0.3-3.3,1.9c-1.1,1.5-1.3,2.3-1.6,4.9c-0.3,2.7-0.5,3.6-0.5,4.4
			c0,0.8-0.1,2,1,3.6c1,1.6,2.5,3.7,2.5,3.7l1,1.7c0.1,0.1,0.2,0.1,0.3,0.1H38c0.1,0,0.2-0.1,0.3-0.1l1-1.7c0,0,1.5-2.1,2.5-3.7
			C42.8,35.5,42.7,34.3,42.7,33.5z"/>
		<g>
			<g>
				<g>
					<path class="st5" d="M27.4,42.8H16.8c-0.1,0-0.2,0.1-0.2,0.2v0.7c0,0.1,0.1,0.2,0.2,0.2h10.6H38c0.1,0,0.2-0.1,0.2-0.2V43
						c0-0.1-0.1-0.2-0.2-0.2H27.4z"/>
					<path class="st5" d="M27.4,27.6L27.4,27.6c0,0-0.1-0.2-0.3-0.4l0,0c-1.2-1.5-5.6-6.2-5.6-6.2s-1.2,0.8-1.4,0.9
						c0,0-2.4,0.3-2.7,0.4c-0.3,0.1-2.2,0.3-3.3,1.9s-1.3,2.3-1.6,4.9c-0.3,2.7-0.5,3.6-0.5,4.4c0,0.8-0.1,2,1,3.6
						c1,1.6,2.5,3.7,2.5,3.7l1,1.7c0.1,0.1,0.2,0.1,0.3,0.1h21.1c0.1,0,0.2-0.1,0.3-0.1l1-1.7c0,0,1.5-2.1,2.5-3.7
						c1-1.6,1-2.8,1-3.6s-0.2-1.8-0.5-4.4c-0.3-2.7-0.6-3.4-1.6-4.9c-1.1-1.5-3-1.8-3.3-1.9s-2.7-0.4-2.7-0.4
						c-0.2-0.1-1.4-0.9-1.4-0.9s-4.4,4.7-5.6,6.2l0,0C27.5,27.4,27.4,27.6,27.4,27.6L27.4,27.6z"/>
				</g>
				<path class="st5" d="M33.2,20.9c0,0-6.1,4.5-6,6.3c0.1,1.8,6.1-3.3,6.1-3.3L33.2,20.9z"/>
				<g>
					<g id="XMLID_1_">
						<g>
							<path class="st6" d="M35.3,13.7L35.3,13.7c0-0.1-2.4-5.1-7-5.4c-0.1,0-0.4,0-0.7,0c-0.1,0-0.2,0-0.3,0c-0.1,0-0.2,0-0.3,0
								c-0.4,0-0.6,0-0.7,0c-4.6,0.3-6.9,5.4-7,5.4l0,0c0,0-1.4,3.2,0.1,4.9l2,2.4c0,0,4.4,4.7,5.6,6.2l0,0c0.1,0.2,0.2,0.3,0.3,0.4
								l0,0c0-0.1,0.1-0.2,0.3-0.4l0,0c1.2-1.5,5.6-6.2,5.6-6.2l2-2.4C36.7,16.8,35.3,13.7,35.3,13.7z"/>
							<path class="st4" d="M34.9,11.9c-0.2-0.7-0.4-1.5-0.6-2.2c-0.5-1.8-0.4-1.4-0.6-2.2l0,0c0-0.1-0.3-0.8-1.1-1.9
								s-1.6-1.3-3-2.1l-0.4-0.2c0,0-0.2-0.1-0.3-0.1c-0.6-0.3-1-0.4-1.6-0.4c-0.5,0-1,0.1-1.6,0.4l-0.3,0.1L25,3.5
								c-1.4,0.8-2.2,1-3,2.1c-0.8,1.2-1,1.9-1.1,1.9l0,0c-0.3,0.8-0.2,0.4-0.6,2.2c-0.2,0.7-0.4,1.5-0.6,2.2
								c-0.1,0.6-0.3,1.2-0.4,1.8c0,0,0.2,0,0.4-0.3c0.7-1.3,2.8-4.9,6.6-5.1c0.1,0,0.4,0,0.7,0c0.1,0,0.2,0,0.3,0
								c0.1,0,0.2,0,0.3,0c0.4,0,0.6,0,0.7,0c4.6,0.3,6.9,5.4,7,5.4C35.2,13.1,35,12.5,34.9,11.9z"/>
						</g>
					</g>
				</g>
			</g>
			<path class="st7" d="M24.5,20.5c0.5,0.3,1,0.5,1.5,0.8c0.4,0.2,0.8,0.4,1.3,0.4c0.5,0.1,0.9-0.1,1.4-0.3c0.5-0.3,1-0.5,1.5-0.8
				c0.2,0.3,0.2,0.7-0.1,0.9c-0.4,0.4-1,0.7-1.5,0.8c-0.8,0.2-1.5,0.2-2.3,0c-0.6-0.2-1.2-0.5-1.7-0.9c-0.1-0.1-0.1-0.2-0.1-0.3
				c0-0.1-0.1-0.3-0.1-0.5C24.3,20.6,24.4,20.6,24.5,20.5"/>
			<path class="st8" d="M27.4,21c0,0.1,0,0.1,0,0.2C27.4,21.2,27.4,21.1,27.4,21z"/>
			<path class="st9" d="M27.2,14c0,0-0.1,0-0.2,0c0,0-1.2,0.6-2.2,0.5s-1.5-0.5-1.9-0.3s-0.5,0.6-0.4,1.1c0.1,0.4,0.6,3.5,0.8,4
				c0,0,0.1,0.4,0.5,0.8s2,1.2,2,1.2s0.6,0.5,1.4,0.5h0.2c0.8,0,1.4-0.5,1.4-0.5s1.6-0.8,2-1.2s0.5-0.8,0.5-0.8
				c0.2-0.5,0.7-3.5,0.8-4s0-0.9-0.4-1.1c-0.4-0.1-0.9,0.3-1.9,0.3c-1,0.1-2.2-0.5-2.2-0.5c-0.1,0-0.2,0-0.2,0L27.2,14"/>
			<g>
				<path class="st10" d="M26.4,19.1c0,0,0.1,0,0.1,0.1l0,0l0,0c0.1,0,0.2,0,0.2,0c0.2,0,0.3,0.1,0.5,0.1l0,0l0,0l0,0l0,0
					c0.6,0,1.1-0.1,1.6-0.6c-0.4,0.1-0.7,0.2-1,0.2c-0.5,0.1-1,0.1-1.5-0.1c-0.1,0-0.2-0.1-0.4-0.1c0,0.1,0,0,0,0.1
					C26.2,19,26.3,19,26.4,19.1z"/>
			</g>
			<path class="st8" d="M31.8,14.3c-0.2,0-0.4,0-0.6,0.1c-0.6,0.2-1.2,0.4-1.9,0.2c-0.5-0.1-1-0.3-1.5-0.5C27.7,14,27.5,14,27.2,14
				c0.2,0.1,0.2,0.3,0.2,0.5c0,1.3,0,2.6,0,3.9c0,0.5,0,0.5-0.5,0.5c-0.1,0-0.3,0-0.4,0l0,0c0.5,0.2,1,0.2,1.5,0.1
				c0.3-0.1,0.6-0.1,1-0.2c-0.5,0.5-1,0.6-1.6,0.6c0,0.4,0,0.8,0,1.2c0,0,0,0,0,0.1l0,0v0.1v0.1c0,0,0,0,0,0.1s0,0.1,0,0.1
				c0,0.1,0,0.1,0,0.2c0,0,0,0,0,0.1c0,0,0,0,0,0.1c0,0,0,0,0,0.1l0,0l0,0h0.3l0,0l0,0l0,0l-0.1,0.1c0,0,0,0-0.1,0
				c0,0-0.1,0-0.1,0.1l0,0l0,0l0,0c0.5,0.1,0.9-0.1,1.4-0.3c0.5-0.3,1-0.5,1.5-0.8c0.1-0.1,0.2-0.1,0.2-0.1c0.7-0.4,1.1-0.9,1.2-1.7
				c0.2-1.2,0.5-2.5,0.7-3.7C32.4,14.7,32.2,14.4,31.8,14.3z"/>
			<path class="st9" d="M27.4,21.7c0,0,0.1,0,0.1-0.1c0,0,0,0,0.1,0c0,0,0.1,0,0.1-0.1l0,0l0,0l0,0h-0.3l0,0l0,0c0,0,0,0,0-0.1
				c0,0,0,0,0-0.1c0,0,0,0,0-0.1s0-0.1,0-0.2s0-0.1,0-0.1s0,0,0-0.1v-0.1v-0.1l0,0c0,0,0,0,0-0.1c0-0.4,0-0.8,0-1.2l0,0l0,0l0,0l0,0
				c-0.2,0-0.3-0.1-0.5-0.1c-0.1,0-0.2,0-0.2,0l0,0l0,0l0,0l0,0l0,0c0,0-0.1,0-0.1-0.1l0,0c-0.1-0.1-0.3-0.2-0.4-0.2l0,0
				c0-0.1,0,0,0-0.1l0,0c0.1,0,0.2,0.1,0.4,0.1l0,0l0,0c0.1,0,0.3,0,0.4,0c0.5,0,0.5,0,0.5-0.5c0-1.3,0-2.6,0-3.9
				c0-0.2,0-0.4-0.2-0.5c-0.1,0-0.2,0-0.3,0.1c-0.5,0.2-1,0.3-1.5,0.5l0,0l0,0c-0.4,0-0.7,0-1.1,0l0,0l0,0l0,0
				c-0.3-0.1-0.7-0.2-1-0.3c-0.5-0.2-1,0.3-0.9,0.8c0.3,1.1,0.5,2.3,0.7,3.4c0.1,0.6,0.3,1.1,0.7,1.5c0.2,0.2,0.5,0.3,0.7,0.5l0,0
				c0.5,0.3,1,0.5,1.5,0.8C26.4,21.6,26.8,21.8,27.4,21.7C27.3,21.7,27.3,21.7,27.4,21.7L27.4,21.7L27.4,21.7z"/>
			<g>
				<path class="st11" d="M35.4,13.7L35.4,13.7L35.4,13.7"/>
				<path class="st11" d="M34.2,21.6L34.2,21.6L34.2,21.6"/>
				<path class="st12" d="M42.7,32.6c0,0.1,0,0.1,0,0.2C42.8,32.8,42.8,32.7,42.7,32.6"/>
				<path class="st13" d="M33.5,20.9L33.5,20.9L33.5,20.9L33.5,20.9"/>
				<path class="st8" d="M26.4,19.1h0.1C26.5,19.2,26.5,19.1,26.4,19.1"/>
				<polygon class="st14" points="17.7,41.6 17.7,42.6 17.7,42.8 37,42.8 37,41.6 				"/>
				<path class="st14" d="M37.2,27.9c-0.3-0.4-1.1-0.5-1.1-0.5l-8.7,0.1l0,0c-2.7,0-5.4,0-8.1,0l-0.9,0.1c-0.6,0.1-1,0.6-1,1.2l0,0
					c0.1,1.1,0.1,2.3,0.2,3.4c0.1,2.9,0.2,5.8,0.4,8.7l0,0l0,0l0,0c0,0.1,0,0.2,0.1,0.3l0,0h0.1l0,0h0.1c0.1,0,18.7,0,18.8-0.1
					c0-0.1,0.5-11.4,0.5-11.4C37.6,28.3,37.4,28.3,37.2,27.9z"/>
				<g>
					<path class="st14" d="M27.3,27.5L27.3,27.5c-2.7,0-5.4,0-8.1,0l-0.9,0.1c-0.6,0.1-1,0.6-1,1.2l0,0c0.1,1.1,0.1,2.3,0.2,3.4
						c0.1,2.9,0.2,5.8,0.4,8.7l0,0l0,0l0,0c0,0.1,0,0.2,0.1,0.3l0,0h0.1l0,0h0.1c0.1,0,0.2,0,0.3,0c2.8,0,5.6,0,8.4,0
						c0.1,0,0.4,0,0.5,0L27.3,27.5L27.3,27.5z"/>
					<path class="st15" d="M37.2,27.9c-0.3-0.4-1.1-0.5-1.1-0.5l-8.7,0.1c0,0,0,0,0,0.1v0.1l0,0l0,0c0,0.1,0,0.1,0,0.2l0,0
						c0,1.4,0,2.9,0,4.3V38c0,1,0,3.2,0,3.2s0,0-0.1,0c0,0,9.5,0,9.5-0.1s0.5-11.4,0.5-11.4C37.6,28.3,37.4,28.3,37.2,27.9z"/>
					<path class="st15" d="M27.4,38.2v-5.8c0-1.4,0-2.9,0-4.3l0,0c0-0.1,0-0.1,0-0.2l0,0l0,0v-0.1c0,0,0,0,0-0.1l0,0L27.5,41
						l0.1-0.1C27.5,40.8,27.4,39.2,27.4,38.2z"/>
				</g>
			</g>
			<g id="Layer_3">
				<path class="st16" d="M27.2,14c0,0-0.1,0-0.2,0c0,0-1.2,0.6-2.2,0.5s-1.5-0.5-1.9-0.3s-0.5,0.6-0.4,1.1c0.1,0.4,0.6,3.5,0.8,4
					c0,0,0.1,0.4,0.5,0.8s2,1.2,2,1.2s0.6,0.5,1.4,0.5h0.2c0.8,0,1.4-0.5,1.4-0.5s1.6-0.8,2-1.2s0.5-0.8,0.5-0.8
					c0.2-0.5,0.7-3.5,0.8-4s0-0.9-0.4-1.1c-0.4-0.1-0.9,0.3-1.9,0.3c-1,0.1-2.2-0.5-2.2-0.5c-0.1,0-0.2,0-0.2,0L27.2,14"/>
			</g>
		</g>
	</g>
</g>
<g id="_x32__hat">
	<g id="fabric_2_">
		<g>
			<path class="st17" d="M20.5,7.1c0.3-1.1,0.6-2.2,0.8-3.2c0.1-0.2,0.1-0.5,0.3-0.6C21.8,3,22,2.9,22.3,2.8
				c1.8-0.7,3.7-1.4,5.6-2.1c0.5-0.2,1-0.3,1.5-0.3c0.5,0.1,0.9,0.3,1.3,0.6c1.5,0.9,2.9,1.8,4.3,2.8c0.2,0.2,0.4,0.3,0.6,0.5
				c0.1,0.2,0.2,0.5,0.2,0.7c0.5,3.5,0.8,7,0.9,10.4c-0.1,0.2-0.4,0.3-0.6,0.1c-0.2-0.1,0.1-1.2,0-1.4c-1-2.7-2.1-4.6-3.3-7.3"/>
		</g>
		<g>
			<g>
				<path class="st18" d="M33.9,5.7l-1-2c0,0-0.1,0,0,0c0.3,1.2,0.5,3.6,0.5,5.5c-0.3-0.2-0.6-0.5-1.3-0.8c-2.3-1.2-4.6-1.8-7.1-1.5
					c0.2-0.2,0.2-0.2,0.4-0.4c-1.5-0.2-2.2-0.3-3.7-0.2c-0.3,0-1.5,0.4-1.9,0.8l13.5,3.6c0,0.4,0.2-0.4,0.1-0.2l0.8-0.8
					c0.4-1.8,0.8-1.3,0-3"/>
			</g>
			<g>
				<path class="st18" d="M33.8,7.8c-0.8-0.7,0.3-3-0.4-2.7c-0.5,0.2-2,0.7-3.1,0.7c0.3-0.1,0.5-0.2,0.8-0.4c-2.5-0.2-4.1-0.4-6.8,0
					c-0.8,0.1-2.7,0.6-3.5,1"/>
			</g>
			<g>
				<path class="st18" d="M36.3,8.9l-0.1,5.3l0,0v0.1c0.1,0.2-0.2,1.2,0,1.4c0.2,0.1,0.5,0.1,0.6-0.1C36.6,13.3,36.5,11.1,36.3,8.9z
					"/>
			</g>
		</g>
	</g>
	<g id="fur_2_">
		<g>
			<path class="st19" d="M34.8,7.7C34.2,6.8,33,6.6,32,6.6c0.2-0.2,0.3-0.2,0.5-0.4c-1.2,0.3-4-0.3-5.3-0.4
				c-2.6-0.2-5.4,0.2-6.1,0.4c0.1-0.1,0.3-0.3,0.5-0.4c-0.8,0.1-1.4,0.2-2.1,0.5c-0.2,0.1-0.6,0.3-0.8,0.4c-0.9,0.6-1.4,1.8-0.7,3.6
				c0-0.4,0.1-0.5,0.2-0.6c0,0.5,0.3,0.9,0.4,1.1c0.6,0.6,1.6,0.6,1.6,0.6c0-0.2-0.2-0.3-0.2-0.4c1,0.4,2.5,0.6,4.1,0.8
				c-0.1-0.1-0.3-0.2-0.4-0.3c0.8,0.1,1.3,0.3,2.7,0.5c1.9,0.1,3.4-0.1,4.6-0.5l-0.6-0.3c0.7-0.5,3.4,0.5,4-0.3
				c-0.1-0.1-1.2,0.1,0.1-0.8C35,9.6,35.5,8.7,34.8,7.7z"/>
		</g>
		<path class="st20" d="M34.8,7.7c-0.5-0.8-1.5-1-2.5-1.1c0.8,0.2,2.4,1.1,1.7,2.6c-0.5,1-2.4,1.1-2.6,1.1c-1.1,0.1-2.3,0.1-3.4,0.2
			c0.2,0.1,0.8,0.4,1,0.5c-0.8,0.5-2.2,0.4-3.1,0.4s-1.8-0.2-2.8-0.4c0.1,0.1,0.1,0.2,0.2,0.3c-1.3,0-2.6-0.3-3.9-0.7
			c0,0.1,0.1,0.3,0.2,0.4c-1-0.4-1.2-1.2-1.2-1.2c0,0.5,0.3,0.9,0.4,1.1c0.6,0.6,1.6,0.6,1.6,0.6C20.2,11.2,20,11.1,20,11
			c1,0.4,2.5,0.6,4.1,0.8c-0.1-0.1-0.3-0.2-0.4-0.3c0.8,0.1,1.3,0.3,2.7,0.5c1.9,0.1,3.4-0.1,4.6-0.5l-0.6-0.3
			c0.7-0.5,3.4,0.5,4-0.3c-0.1-0.1-1.2,0.1,0.1-0.8C35,9.6,35.5,8.7,34.8,7.7z"/>
	</g>
	<g id="fur_ball_2_">
		<g>
			<path class="st19" d="M36.2,13.9c0.3-0.1,1.1,0.1,1.4,0.2c0.3,0.2,0.5,0.5,0.7,0.8c-0.1,0-0.3,0-0.4,0c0.4,0.3,0.6,1,0.6,1.5
				s-0.1,0.8-0.6,1.4c-0.5,0.4-0.6,0.5-1.2,0.7c-0.5,0.1-1.2,0-1.6-0.4c0.1,0,0.2-0.1,0.3-0.1c-1-0.4-1.7-1.6-1.5-2.6
				c0.2,0.4,0.2,0.5,0.6,0.6c-0.2-0.2-0.1-1,0.4-1.4c0.3-0.3,0.6-0.5,1-0.6"/>
		</g>
		<g>
			<path class="st20" d="M38.5,16.3c0-0.5-0.2-1.1-0.6-1.4c0,0,0.1,0.2,0.2,0.4c0,0.3,0,0.7-0.2,1c0.1,0,0.3-0.1,0.4-0.1
				c0,0.3-0.1,0.6-0.3,0.9c-0.5,0.6-1.5,0.8-1.9,0.6c0.1-0.1,0.1-0.3,0.1-0.5c-0.3,0.2-0.6,0.1-0.9,0c-0.3-0.1-0.5-0.3-0.7-0.5
				s-0.4-0.5-0.5-1.3c-0.2,1.1,0.5,2.2,1.5,2.6c-0.1,0-0.2,0.1-0.3,0.1c0.4,0.4,1,0.5,1.5,0.4s0.8-0.2,1.3-0.7
				C38.5,17.1,38.5,16.8,38.5,16.3z"/>
		</g>
	</g>
</g>
<g>
	<g>
		<path class="st5" d="M22.7,37.5c0.3-0.3,0.5-0.6,0.7-0.9c0.1-0.2,0.2-0.4,0.2-0.6c0-0.5-0.4-0.8-0.9-0.6s-0.7,0.5-0.8,1
			c0,0.1,0,0.2,0,0.4c-0.9-0.9-1.6-1.9-1.8-3.2c0.2,0.2,0.5,0.3,0.7,0.5c0,0,0,0,0,0c-0.2-0.3-0.4-0.6-0.6-0.8
			C20,32.9,20,32.5,20,32.1c0-0.3,0.1-0.6,0.1-0.9c0,0,0-0.1,0-0.1c0.2,0.2,0.4,0.5,0.7,0.7c-0.1-0.4-0.3-0.8-0.4-1.1
			c-0.1-0.2,0-0.4,0.1-0.6c0.1-0.1,0.1-0.2,0.2-0.4c0.1,0.4,0.2,0.8,0.4,1.1c0.5,1.3,1.3,2.3,2.5,2.9c0.3,0.2,0.6,0.2,1,0.3
			c0,0,0.1,0.1,0.1,0.1c0.1,0.5,0.1,1,0.2,1.5c0,0.2,0,0.4,0,0.6c-0.1-0.1-0.1-0.2-0.2-0.3c-0.2-0.2-0.4-0.2-0.4,0.1
			c-0.1,0.3-0.1,0.6-0.1,0.9c0,0.8,0.4,1.4,0.8,2c0,0,0,0.1,0.1,0.1C24.2,38.6,23.4,38,22.7,37.5z"/>
		<path class="st5" d="M32.8,36.8c0-0.3,0-0.7-0.2-1c-0.2-0.2-0.3-0.4-0.6-0.5c-0.5-0.1-0.9,0.3-0.9,0.8s0.4,0.8,0.7,1.1
			c0.1,0.1,0.2,0.1,0.2,0.2c-0.7,0.6-1.5,1.1-2.4,1.6c0.2-0.3,0.3-0.5,0.5-0.8c0.3-0.6,0.5-1.2,0.4-2c0-0.2-0.1-0.3-0.2-0.5
			c-0.1-0.1-0.2-0.1-0.3,0c-0.1,0.1-0.2,0.2-0.3,0.4c0-0.8,0.1-1.5,0.2-2.1c1.5-0.2,2.4-1.1,3.2-2.3c0.4-0.6,0.6-1.3,0.8-2
			c0,0,0-0.1,0-0.1c0.2,0.3,0.3,0.5,0.2,0.8c-0.1,0.4-0.3,0.8-0.4,1.2c0.2-0.3,0.4-0.6,0.6-1c0.1,0.2,0.1,0.5,0,0.7
			c-0.5,1-1.3,1.8-2.2,2.4c-0.1,0-0.2,0.1-0.2,0.2c1.1-0.4,2-1.1,2.7-2.1c0,0.2,0,0.3,0,0.4c0.1,0.7-0.2,1.2-0.7,1.6
			c0,0.1-0.1,0.1-0.2,0.2c0,0,0,0,0,0.1c0.2-0.2,0.5-0.3,0.7-0.5C34.7,34.2,33.7,36.1,32.8,36.8z"/>
		<path class="st5" d="M27.2,40c-0.4-0.1-0.7-0.3-1-0.6c-0.5-0.4-0.9-0.9-1-1.5c-0.1-0.3-0.1-0.6,0-0.9c0.2-0.5,0.2-1,0.1-1.6
			c0-0.6-0.1-1.2-0.2-1.7c0-0.4-0.1-0.8-0.2-1.2c0.6,0.7,1.2,1.3,2,1.7c-0.1,0.4-0.1,0.8-0.2,1.2c-0.1,0.5-0.1,1,0,1.5
			c0.1,0.3,0.2,0.5,0.5,0.7C27.2,38.4,27.2,39.1,27.2,40z"/>
		<path class="st5" d="M27.6,40c0-0.1,0-0.2,0-0.3c0-0.6,0-1.3,0-1.9c0-0.1,0-0.1,0.1-0.2c0.3-0.2,0.4-0.5,0.5-0.8
			c0.1-0.7,0-1.4-0.1-2c0-0.2-0.1-0.3-0.1-0.5c0-0.1,0.2-0.2,0.4-0.2c0.6-0.3,1-0.8,1.5-1.3c0,0,0.1-0.1,0.1-0.1
			c0,0.2-0.1,0.4-0.1,0.7c-0.1,0.8-0.2,1.6-0.3,2.4c-0.1,0.5,0,1,0.2,1.5c0.1,0.4,0,0.7-0.2,1C29.1,39,28.5,39.6,27.6,40z"/>
	</g>
</g>
</svg>
